<svg xmlns="http://www.w3.org/2000/svg" viewBox="0 0 280 420" fill="none">
  <rect width="280" height="420" rx="20" fill="#1c1215"/>
  <rect x="16" y="16" width="248" height="388" rx="14" fill="#fff0f3"/>
  <rect x="40" y="44" width="200" height="72" rx="12" fill="#fecdd3" opacity="0.6"/>
  <rect x="52" y="140" width="176" height="36" rx="10" fill="#22c55e"/>
  <path d="M56 200h12l8 14 8-14h12l-14 22h-12l-14-22z" fill="#dc2626"/>
  <rect x="56" y="232" width="168" height="8" rx="2" fill="#fda4af" opacity="0.7"/>
  <rect x="56" y="248" width="152" height="8" rx="2" fill="#fda4af" opacity="0.5"/>
  <rect x="40" y="288" width="200" height="32" rx="8" fill="#fff" stroke="#fecdd3"/>
  <rect x="40" y="332" width="56" height="20" rx="4" fill="#e5e7eb" opacity="0.8"/>
  <rect x="104" y="332" width="56" height="20" rx="4" fill="#e5e7eb" opacity="0.8"/>
  <rect x="168" y="332" width="56" height="20" rx="4" fill="#e5e7eb" opacity="0.8"/>
</svg>
